<?xml version="1.0" standalone="no"?>
<!DOCTYPE svg PUBLIC "-//W3C//DTD SVG 20010904//EN"
 "http://www.w3.org/TR/2001/REC-SVG-20010904/DTD/svg10.dtd">
<svg version="1.0" xmlns="http://www.w3.org/2000/svg"
 width="325.000000pt" height="233.000000pt" viewBox="0 0 325.000000 233.000000"
 preserveAspectRatio="xMidYMid meet">

<g transform="translate(0.000000,233.000000) scale(0.100000,-0.100000)"
fill="#000000" stroke="none">
<path d="M1568 2267 c-46 -41 -120 -65 -228 -72 -175 -13 -273 -63 -326 -166
-22 -43 -28 -49 -57 -49 -109 0 -192 -73 -274 -242 -51 -104 -100 -168 -166
-214 l-28 -19 17 -40 c23 -55 23 -173 0 -250 -40 -131 -21 -250 55 -347 31
-38 32 -44 33 -131 1 -124 29 -182 129 -270 130 -113 160 -154 173 -234 l6
-38 71 -1 c79 0 133 -19 222 -79 136 -90 257 -104 376 -44 36 18 37 18 100 -9
115 -47 225 -32 351 50 100 65 144 81 225 82 l72 1 6 34 c11 60 51 124 107
175 120 108 140 131 166 180 23 44 27 63 28 147 l1 96 41 52 c72 91 88 188 52
322 -24 89 -26 201 -5 260 l16 44 -28 19 c-61 43 -112 107 -153 192 -82 172
-150 244 -245 259 -75 12 -80 14 -94 47 -8 18 -32 51 -54 75 -51 55 -123 82
-252 94 -134 13 -206 34 -254 75 -21 19 -41 34 -43 34 -1 -1 -20 -15 -40 -33z
m192 -81 c36 -8 107 -19 159 -25 148 -16 222 -61 274 -168 20 -41 23 -43 66
-43 94 -1 182 -71 235 -185 59 -129 73 -151 134 -213 l64 -64 -11 -44 c-17
-65 -13 -144 10 -247 32 -143 14 -237 -64 -323 -34 -38 -35 -40 -26 -92 20
-129 -31 -231 -166 -333 -62 -46 -111 -114 -127 -175 l-11 -42 -65 -5 c-65 -5
-101 -20 -267 -113 -67 -37 -74 -39 -160 -39 -71 0 -101 5 -142 22 l-52 23
-48 -22 c-38 -18 -67 -22 -143 -23 -91 0 -98 1 -160 37 -175 99 -203 111 -271
116 l-66 4 -11 45 c-18 64 -62 123 -136 181 -74 59 -107 98 -137 167 -18 42
-21 61 -16 133 5 84 5 85 -24 109 -15 13 -40 49 -55 80 -23 47 -28 68 -27 132
1 42 8 103 17 136 18 67 21 182 6 237 -11 37 -10 38 53 100 52 51 74 83 115
170 79 165 148 227 254 228 l47 0 29 58 c53 104 128 142 319 162 107 10 184
33 228 68 l26 21 42 -30 c24 -16 70 -35 107 -43z"/>
<path d="M1569 2170 c-49 -26 -104 -38 -228 -50 -158 -16 -216 -48 -270 -149
-30 -58 -34 -61 -69 -61 -106 0 -173 -51 -234 -179 -42 -89 -108 -189 -150
-229 -24 -22 -25 -26 -20 -121 3 -76 0 -117 -14 -173 -37 -147 -15 -254 65
-319 l38 -30 -14 -62 c-25 -119 7 -194 128 -297 82 -69 136 -135 150 -180 10
-34 14 -36 72 -47 34 -7 93 -29 132 -49 38 -20 100 -52 136 -71 87 -45 151
-47 250 -8 l69 28 71 -28 c49 -19 89 -27 127 -27 57 0 66 4 257 106 39 20 97
42 130 48 60 12 60 12 87 68 18 36 51 78 90 115 35 32 80 74 101 94 73 67 96
143 77 245 l-12 65 37 32 c80 71 100 175 61 324 -15 55 -17 91 -13 171 5 87 3
101 -11 111 -34 20 -101 119 -151 220 -27 55 -66 117 -86 136 -37 36 -95 57
-159 57 -33 0 -38 4 -65 58 -53 104 -113 138 -273 152 -101 9 -231 41 -243 60
-9 14 -25 12 -66 -10z m91 -26 c57 -26 125 -41 220 -49 159 -13 202 -38 259
-152 l31 -63 59 0 c33 0 70 -4 83 -9 43 -16 85 -71 142 -185 31 -62 78 -136
104 -166 l47 -54 -3 -95 c-3 -73 1 -115 17 -175 37 -142 26 -203 -55 -283 -53
-54 -54 -56 -44 -91 28 -101 2 -203 -67 -265 -137 -125 -162 -151 -186 -201
-25 -50 -30 -55 -69 -61 -66 -11 -140 -42 -209 -87 -131 -85 -195 -92 -316
-37 l-63 28 -67 -31 c-96 -45 -157 -43 -243 5 -134 74 -206 107 -260 118 -54
10 -57 13 -84 64 -31 59 -70 103 -165 184 -95 81 -120 158 -90 277 l12 46 -45
41 c-84 78 -102 147 -70 273 27 109 33 169 23 234 l-9 55 48 51 c26 30 74 104
109 171 34 66 77 135 97 154 32 31 40 34 110 37 l75 4 31 62 c57 114 88 132
269 152 120 13 231 43 245 65 3 6 9 8 12 7 4 -2 27 -13 52 -24z"/>
<path d="M1544 2022 c-7 -5 -7 -25 1 -67 8 -42 14 -55 19 -43 11 24 -6 119
-20 110z"/>
<path d="M1630 1977 c0 -50 12 -77 33 -77 5 0 5 6 -2 13 -6 8 -8 33 -4 65 5
44 3 52 -11 52 -13 0 -16 -11 -16 -53z"/>
<path d="M1462 1958 c21 -34 34 -47 36 -37 4 22 -37 89 -54 89 -9 0 -4 -16 18
-52z"/>
<path d="M1791 1967 c-7 -23 -15 -50 -17 -59 -3 -11 0 -18 9 -18 15 0 24 22
33 76 8 48 -11 49 -25 1z"/>
<path d="M1876 1983 c-3 -3 -6 -15 -6 -25 0 -10 -7 -18 -17 -19 -10 0 -13 -3
-6 -5 8 -4 10 -16 6 -35 -10 -52 13 -31 29 26 14 50 11 75 -6 58z"/>
<path d="M1252 1930 c2 -19 12 -27 47 -37 25 -7 46 -11 48 -9 9 9 -31 36 -52
36 -13 0 -29 8 -35 18 -9 15 -10 14 -8 -8z"/>
<path d="M1994 1918 c-4 -6 -9 -33 -11 -58 -3 -36 0 -49 12 -53 12 -5 15 4 15
58 0 65 -3 75 -16 53z"/>
<path d="M1150 1866 c0 -9 4 -16 9 -16 5 0 22 -11 38 -24 18 -15 34 -21 42
-17 9 6 5 13 -13 24 -83 54 -76 51 -76 33z"/>
<path d="M2107 1827 c-2 -23 -8 -50 -12 -61 -6 -14 -4 -17 5 -14 8 2 17 15 20
29 19 71 20 77 6 82 -10 4 -15 -6 -19 -36z"/>
<path d="M1027 1803 c-8 -13 69 -96 82 -88 8 4 -1 21 -25 48 -41 46 -50 52
-57 40z"/>
<path d="M2161 1754 c-20 -28 -29 -50 -24 -55 9 -9 76 70 75 87 -1 21 -20 9
-51 -32z"/>
<path d="M1910 1736 c0 -2 7 -7 16 -10 8 -3 12 -2 9 4 -6 10 -25 14 -25 6z"/>
<path d="M936 1721 c-4 -5 13 -26 37 -45 45 -37 57 -43 57 -27 0 15 -88 82
-94 72z"/>
<path d="M1286 1717 c-21 -7 -45 -22 -54 -34 -14 -22 -13 -23 12 -23 16 0 41
13 64 35 40 37 38 40 -22 22z"/>
<path d="M1875 1720 c-3 -6 1 -7 9 -4 18 7 21 14 7 14 -6 0 -13 -4 -16 -10z"/>
<path d="M2255 1677 c-11 -23 -21 -45 -23 -49 -2 -5 2 -8 10 -8 11 0 48 71 48
93 0 19 -17 2 -35 -36z"/>
<path d="M1929 1698 c-28 -23 -30 -45 -4 -50 27 -6 34 6 26 40 -5 20 -8 21
-22 10z"/>
<path d="M1131 1672 c-6 -12 -11 -40 -9 -62 2 -34 6 -40 29 -45 18 -4 41 1 66
14 l38 20 -42 1 c-42 0 -43 1 -56 47 -13 45 -15 46 -26 25z"/>
<path d="M1578 1658 c-2 -7 -1 -58 2 -113 l6 -100 2 113 c2 105 -1 129 -10
100z"/>
<path d="M2010 1631 c-17 -29 -30 -40 -43 -37 -9 2 -15 0 -11 -5 3 -5 19 -9
35 -9 26 0 29 -3 24 -23 -4 -14 -1 -28 7 -34 20 -16 66 -24 73 -13 3 5 21 11
38 11 25 1 27 3 9 6 -19 4 -23 9 -18 29 4 13 4 24 1 24 -12 0 -47 -22 -67 -42
-12 -12 -24 -16 -29 -11 -13 13 1 74 18 80 9 3 10 9 4 17 -5 6 -10 19 -12 29
-3 15 -10 9 -29 -22z"/>
<path d="M1179 1633 c-13 -16 -12 -17 4 -4 9 7 17 15 17 17 0 8 -8 3 -21 -13z"/>
<path d="M2305 1609 c-16 -16 -33 -29 -37 -29 -5 0 -8 -7 -8 -15 0 -8 3 -15 6
-15 12 0 93 74 88 82 -8 13 -17 9 -49 -23z"/>
<path d="M907 1609 c-10 -6 -25 -8 -33 -5 -10 4 -14 1 -12 -6 6 -17 47 -23 61
-9 6 6 22 11 35 11 13 0 20 4 17 10 -8 13 -45 12 -68 -1z"/>
<path d="M1350 1590 c0 -14 68 -140 76 -140 4 0 -63 139 -72 149 -2 2 -4 -2
-4 -9z"/>
<path d="M1812 1584 c-18 -33 -52 -124 -47 -124 9 0 66 122 62 133 -2 7 -9 3
-15 -9z"/>
<path d="M1034 1555 c-3 -20 -1 -47 6 -64 8 -21 9 -35 1 -49 -6 -12 -11 -24
-11 -29 1 -4 8 4 16 20 10 18 23 27 39 27 13 0 37 12 52 26 l28 26 -38 -6
c-31 -4 -38 -2 -33 9 3 9 0 12 -9 9 -8 -4 -15 5 -20 25 -10 44 -23 47 -31 6z"/>
<path d="M1542 1570 c0 -14 2 -19 5 -12 2 6 2 18 0 25 -3 6 -5 1 -5 -13z"/>
<path d="M1613 1535 c0 -27 2 -38 4 -22 2 15 2 37 0 50 -2 12 -4 0 -4 -28z"/>
<path d="M815 1530 c-3 -5 1 -10 9 -10 9 0 21 -9 28 -20 13 -20 34 -25 62 -14
27 11 17 24 -13 18 -23 -5 -30 -2 -36 15 -7 22 -39 29 -50 11z"/>
<path d="M1422 1515 c6 -14 13 -24 14 -22 6 6 -9 47 -17 47 -5 0 -3 -11 3 -25z"/>
<path d="M1746 1525 c-9 -26 -7 -32 5 -12 6 10 9 21 6 23 -2 3 -7 -2 -11 -11z"/>
<path d="M2178 1522 c19 -13 11 -46 -13 -50 -11 -3 -24 -11 -28 -19 -5 -8 -18
-18 -30 -23 -21 -8 -21 -8 6 -15 47 -12 75 1 82 39 9 44 4 68 -15 73 -12 4
-12 3 -2 -5z"/>
<path d="M1350 1501 c0 -6 4 -13 10 -16 6 -3 7 1 4 9 -7 18 -14 21 -14 7z"/>
<path d="M2353 1471 c-48 -56 -25 -64 26 -9 34 37 40 48 25 47 -10 0 -33 -17
-51 -38z"/>
<path d="M1806 1483 c-6 -14 -5 -15 5 -6 7 7 10 15 7 18 -3 3 -9 -2 -12 -12z"/>
<path d="M790 1472 c0 -9 84 -52 100 -52 23 0 7 18 -35 38 -48 23 -65 27 -65
14z"/>
<path d="M970 1414 c0 -25 6 -47 15 -54 8 -7 15 -19 15 -26 0 -20 48 2 79 35
20 22 22 27 8 29 -9 2 -25 -2 -36 -8 -15 -8 -21 -8 -21 0 0 6 -4 9 -9 6 -5 -3
-18 9 -30 27 l-21 32 0 -41z"/>
<path d="M1182 1389 c4 -11 118 -62 124 -56 4 3 -113 67 -123 67 -2 0 -3 -5
-1 -11z"/>
<path d="M1923 1361 c-72 -51 -78 -60 -18 -26 76 43 85 49 85 57 0 14 -15 8
-67 -31z"/>
<path d="M2445 1394 c-5 -2 -29 -8 -52 -14 -24 -6 -43 -17 -43 -24 0 -12 10
-12 58 1 31 8 58 16 59 17 6 5 -13 23 -22 20z"/>
<path d="M1270 1386 c0 -3 14 -12 30 -21 17 -9 30 -13 30 -11 0 3 -13 12 -30
21 -16 9 -30 13 -30 11z"/>
<path d="M1860 1359 l-35 -31 32 22 c29 19 50 40 41 40 -2 0 -19 -14 -38 -31z"/>
<path d="M860 1370 c0 -5 5 -10 11 -10 5 0 7 5 4 10 -3 6 -8 10 -11 10 -2 0
-4 -4 -4 -10z"/>
<path d="M1814 1365 c-10 -8 -14 -15 -8 -15 6 0 17 7 24 15 16 19 9 19 -16 0z"/>
<path d="M2175 1350 c-3 -5 -18 -10 -33 -10 l-27 -1 23 -19 c13 -11 21 -24 18
-29 -4 -5 7 -3 24 5 16 9 34 13 40 9 5 -3 7 0 4 8 -3 8 -1 18 5 22 6 3 11 10
11 16 0 12 -57 12 -65 -1z"/>
<path d="M740 1326 c0 -8 15 -16 38 -20 20 -3 47 -9 60 -12 13 -4 22 -2 22 4
0 6 -23 18 -52 27 -63 18 -68 19 -68 1z"/>
<path d="M1534 1330 c-63 -20 -124 -106 -124 -175 1 -38 38 -102 76 -131 32
-25 47 -29 99 -29 51 0 67 4 97 27 71 54 91 149 49 224 -40 71 -123 106 -197
84z m66 -51 c0 -6 9 -8 20 -4 33 10 23 -15 -10 -28 -33 -12 -34 -15 -20 -37 8
-13 10 -13 10 2 0 10 9 22 19 28 16 8 20 6 24 -8 3 -13 6 -11 15 11 13 31 37
27 29 -4 -3 -11 0 -19 8 -19 18 0 26 -27 12 -38 -7 -6 -21 -12 -32 -15 -13 -3
-9 -5 13 -6 35 -1 43 -17 15 -29 -10 -4 -18 -15 -18 -24 0 -10 -4 -17 -10 -15
-5 1 -9 8 -9 15 1 6 -2 12 -7 12 -16 0 -20 -19 -7 -39 18 -30 2 -37 -31 -14
-24 19 -30 20 -42 8 -10 -10 -26 -13 -53 -8 -31 5 -41 12 -52 39 -16 39 -19
94 -4 94 6 0 10 -8 10 -17 0 -13 5 -12 26 8 14 13 20 25 15 27 -17 6 -13 22 5
22 8 0 13 4 9 9 -6 11 32 41 52 41 7 0 13 -5 13 -11z m-100 -59 c0 -5 -4 -10
-10 -10 -5 0 -10 5 -10 10 0 6 5 10 10 10 6 0 10 -4 10 -10z m100 -165 c0 -8
-4 -15 -10 -15 -5 0 -7 7 -4 15 4 8 8 15 10 15 2 0 4 -7 4 -15z"/>
<path d="M1555 1209 c-4 -6 -5 -12 -2 -15 2 -3 7 2 10 11 7 17 1 20 -8 4z"/>
<path d="M1611 1197 c-13 -34 -14 -64 -2 -71 5 -4 7 2 4 13 -3 12 5 26 23 40
18 14 22 21 11 21 -8 0 -17 6 -20 13 -3 6 -10 0 -16 -16z"/>
<path d="M1512 1135 c-9 -20 -9 -25 2 -25 26 0 45 12 40 25 -3 7 3 15 13 18
11 3 5 5 -13 6 -24 1 -33 -5 -42 -24z m28 -5 c0 -5 -4 -10 -10 -10 -5 0 -10 5
-10 10 0 6 5 10 10 10 6 0 10 -4 10 -10z"/>
<path d="M1230 1324 c0 -7 52 -25 57 -20 2 2 -10 8 -26 14 -17 6 -31 9 -31 6z"/>
<path d="M2431 1314 c-18 -8 -40 -13 -47 -10 -8 3 -14 1 -14 -4 0 -5 11 -12
25 -16 26 -6 75 17 75 36 0 6 -1 10 -2 9 -2 0 -18 -7 -37 -15z"/>
<path d="M920 1283 c0 -28 24 -72 46 -84 29 -15 47 -7 78 34 24 33 15 45 -17
24 -31 -20 -50 -17 -82 13 -14 13 -25 19 -25 13z"/>
<path d="M2194 1239 c-3 -6 -19 -9 -35 -7 l-29 5 22 -24 22 -23 -22 -16 c-12
-8 -22 -19 -22 -24 0 -5 12 2 27 16 20 19 36 25 58 22 22 -2 31 1 31 12 1 8 4
22 8 30 5 11 -1 16 -24 17 -16 1 -32 -3 -36 -8z"/>
<path d="M2433 1233 c-33 -3 -53 -9 -53 -16 0 -8 18 -11 60 -9 43 3 60 8 60
18 0 8 -3 13 -7 12 -5 -1 -32 -3 -60 -5z"/>
<path d="M763 1187 c-29 -7 -43 -16 -43 -27 0 -15 6 -15 59 4 33 11 57 24 55
28 -6 9 -14 9 -71 -5z"/>
<path d="M1195 1191 c3 -6 22 -11 42 -11 44 0 41 5 -10 14 -27 5 -37 4 -32 -3z"/>
<path d="M1903 1193 c15 -2 37 -2 50 0 12 2 0 4 -28 4 -27 0 -38 -2 -22 -4z"/>
<path d="M1308 1173 c7 -3 16 -2 19 1 4 3 -2 6 -13 5 -11 0 -14 -3 -6 -6z"/>
<path d="M1900 1160 c20 -13 150 -13 150 0 0 6 -34 10 -82 10 -57 0 -78 -3
-68 -10z"/>
<path d="M1110 1150 c0 -6 46 -9 123 -8 108 1 115 2 57 8 -98 11 -180 11 -180
0z"/>
<path d="M1021 1126 c-22 -24 -61 -41 -61 -27 0 4 -13 15 -30 24 l-29 18 11
-32 c6 -17 24 -39 39 -48 16 -9 29 -19 29 -23 0 -17 51 42 61 71 15 41 8 47
-20 17z"/>
<path d="M2451 1131 c-19 -10 -43 -16 -53 -13 -12 3 -18 -1 -18 -12 0 -10 8
-16 22 -16 30 0 97 33 98 48 0 16 -8 15 -49 -7z"/>
<path d="M1938 1123 c7 -3 16 -2 19 1 4 3 -2 6 -13 5 -11 0 -14 -3 -6 -6z"/>
<path d="M2157 1099 c16 -27 34 -29 80 -7 44 22 33 33 -32 33 l-63 0 15 -26z"/>
<path d="M1208 1113 c7 -3 16 -2 19 1 4 3 -2 6 -13 5 -11 0 -14 -3 -6 -6z"/>
<path d="M760 1081 c-62 -8 -35 -23 35 -19 36 2 55 7 55 16 0 13 -14 13 -90 3z"/>
<path d="M2130 1022 c0 -2 5 -13 11 -24 8 -15 8 -22 -1 -28 -7 -4 6 -8 29 -8
30 -1 49 6 69 24 17 15 20 22 9 18 -9 -3 -23 -2 -30 4 -11 9 -87 22 -87 14z"/>
<path d="M1244 1004 c-18 -14 -18 -15 4 -4 12 6 22 13 22 15 0 8 -5 6 -26 -11z"/>
<path d="M1910 1010 c20 -13 33 -13 25 0 -3 6 -14 10 -23 10 -15 0 -15 -2 -2
-10z"/>
<path d="M783 964 c-32 -43 -41 -65 -25 -63 4 0 26 25 50 55 34 42 39 54 25
53 -10 0 -33 -20 -50 -45z"/>
<path d="M1037 981 c-10 -17 -23 -29 -28 -26 -5 4 -9 2 -9 -4 0 -6 -16 -5 -40
4 l-41 14 22 -30 c12 -17 34 -32 50 -36 19 -4 35 -16 45 -34 8 -16 17 -29 20
-29 2 0 -2 13 -10 28 -13 26 -13 31 0 44 10 10 14 29 12 57 l-3 43 -18 -31z"/>
<path d="M1240 969 c-34 -22 -60 -43 -56 -46 5 -6 113 64 122 79 9 14 -2 9
-66 -33z"/>
<path d="M1900 971 c79 -42 90 -46 90 -33 0 5 -30 21 -67 36 -101 42 -106 41
-23 -3z"/>
<path d="M1319 973 c-13 -16 -12 -17 4 -4 16 13 21 21 13 21 -2 0 -10 -8 -17
-17z"/>
<path d="M1850 966 c0 -3 9 -10 20 -16 11 -6 20 -8 20 -6 0 3 -9 10 -20 16
-11 6 -20 8 -20 6z"/>
<path d="M2402 960 c-39 -9 -66 -30 -39 -30 9 0 39 5 68 11 36 8 47 14 38 20
-16 10 -22 10 -67 -1z"/>
<path d="M1279 943 c-13 -16 -12 -17 4 -4 16 13 21 21 13 21 -2 0 -10 -8 -17
-17z"/>
<path d="M2210 941 c0 -6 4 -13 10 -16 6 -3 7 1 4 9 -7 18 -14 21 -14 7z"/>
<path d="M2103 913 c6 -30 47 -85 47 -63 0 6 11 10 25 10 14 0 25 2 25 5 0 11
-41 45 -54 45 -8 0 -22 8 -32 17 -17 17 -17 16 -11 -14z"/>
<path d="M1095 857 c-5 -26 -12 -37 -21 -33 -7 3 -11 0 -8 -7 3 -9 -8 -12 -38
-9 l-43 3 28 -26 c67 -60 133 1 97 90 -6 17 -9 14 -15 -18z"/>
<path d="M1779 875 c17 -34 31 -51 31 -39 0 7 -9 22 -21 35 -16 19 -18 20 -10
4z"/>
<path d="M1571 781 c0 -65 3 -101 8 -95 6 5 6 47 2 104 l-8 95 -2 -104z"/>
<path d="M1601 864 c0 -11 3 -14 6 -6 3 7 2 16 -1 19 -3 4 -6 -2 -5 -13z"/>
<path d="M1631 864 c0 -11 3 -14 6 -6 3 7 2 16 -1 19 -3 4 -6 -2 -5 -13z"/>
<path d="M2336 872 c-3 -5 6 -14 19 -20 14 -7 25 -15 25 -20 0 -4 8 -8 18 -8
9 -1 23 -3 31 -5 7 -2 15 1 17 6 2 6 -17 19 -43 30 -26 11 -50 21 -54 23 -4 2
-10 -1 -13 -6z"/>
<path d="M1376 799 c-15 -34 -24 -64 -21 -67 7 -8 10 -3 34 62 29 79 21 82
-13 5z"/>
<path d="M1753 848 c31 -79 40 -98 48 -98 5 0 9 2 9 5 0 11 -51 105 -56 105
-3 0 -4 -6 -1 -12z"/>
<path d="M1422 808 c-10 -30 -10 -31 3 -14 13 17 21 46 12 46 -1 0 -8 -15 -15
-32z"/>
<path d="M2035 810 c10 -51 44 -71 88 -54 12 4 10 10 -10 30 -13 13 -29 24
-35 24 -6 0 -20 8 -31 18 -19 17 -19 16 -12 -18z"/>
<path d="M2157 809 c4 -13 8 -18 11 -10 2 7 -1 18 -6 23 -8 8 -9 4 -5 -13z"/>
<path d="M854 789 c-59 -30 -64 -56 -6 -32 42 17 66 37 61 50 -2 4 -27 -4 -55
-18z"/>
<path d="M1613 785 c0 -22 2 -30 4 -17 2 12 2 30 0 40 -3 9 -5 -1 -4 -23z"/>
<path d="M1542 790 c0 -14 2 -19 5 -12 2 6 2 18 0 25 -3 6 -5 1 -5 -13z"/>
<path d="M2306 801 c-4 -6 15 -20 43 -32 56 -23 64 -25 69 -11 2 8 -15 17 -94
49 -7 2 -15 0 -18 -6z"/>
<path d="M1185 752 c-7 -41 -32 -62 -78 -62 -21 -1 -21 -1 3 -15 29 -16 78
-19 100 -6 19 13 18 71 -2 100 -16 23 -16 23 -23 -17z"/>
<path d="M1966 768 c-20 -28 -21 -82 -2 -98 8 -6 12 -19 9 -28 -4 -14 -3 -15
6 -2 6 9 23 14 43 12 27 -2 30 -1 16 8 -10 6 -18 19 -18 29 0 10 -11 23 -25
29 -25 12 -34 45 -15 57 5 3 20 1 32 -5 22 -11 22 -10 4 4 -26 21 -32 20 -50
-6z"/>
<path d="M1290 702 c0 -6 4 -22 10 -36 8 -21 6 -26 -6 -26 -8 0 -13 -4 -9 -9
3 -5 -11 -15 -30 -21 -19 -6 -33 -16 -30 -21 9 -13 82 -11 91 2 4 7 21 9 43 6
l36 -6 -27 15 c-18 9 -28 23 -28 38 0 12 -11 33 -25 46 -14 13 -25 18 -25 12z"/>
<path d="M1863 698 c-6 -7 -15 -27 -20 -44 -10 -28 -8 -32 21 -51 17 -12 42
-24 56 -27 21 -6 22 -5 8 4 -10 6 -18 22 -18 35 0 14 -9 34 -21 46 -11 11 -18
27 -15 35 7 17 2 18 -11 2z"/>
<path d="M972 600 c-7 -11 -20 -20 -30 -20 -16 -1 -16 -1 1 -14 11 -9 15 -20
11 -31 -6 -14 -3 -16 15 -10 13 4 28 1 37 -6 13 -11 14 -9 9 13 -5 19 -2 29
12 37 17 10 16 10 -5 11 -13 0 -26 8 -30 20 -7 20 -7 20 -20 0z"/>
<path d="M1775 605 c-25 -12 -26 -14 -5 -9 28 7 60 23 45 23 -5 0 -23 -6 -40
-14z"/>
<path d="M1961 597 c-13 -21 -12 -21 5 -5 10 10 16 20 13 22 -3 3 -11 -5 -18
-17z"/>
<path d="M2226 595 c-3 -8 -16 -15 -28 -15 -21 -1 -22 -1 -5 -11 14 -8 17 -18
12 -37 -5 -22 -4 -24 9 -13 9 8 25 11 37 8 13 -3 19 -1 16 6 -2 7 2 20 11 30
14 15 13 17 -2 17 -9 0 -19 7 -22 15 -4 8 -10 15 -14 15 -4 0 -10 -7 -14 -15z"/>
<path d="M1695 575 c-25 -12 -26 -14 -5 -9 28 7 60 23 45 23 -5 0 -23 -6 -40
-14z"/>
<path d="M1550 526 c0 -2 11 -6 25 -8 14 -3 25 -1 25 3 0 5 -11 9 -25 9 -14 0
-25 -2 -25 -4z"/>
<path d="M1190 423 c-14 -27 -26 -51 -28 -55 -2 -5 1 -8 7 -8 15 0 72 90 65
101 -10 17 -20 8 -44 -38z"/>
<path d="M1454 448 l-19 -23 23 19 c21 18 27 26 19 26 -2 0 -12 -10 -23 -22z"/>
<path d="M1980 453 c1 -25 87 -90 101 -76 6 6 -5 20 -33 39 -64 43 -68 46 -68
37z"/>
<path d="M1865 409 c-11 -4 -15 -8 -8 -8 7 -1 20 -23 30 -51 10 -27 23 -50 29
-50 8 0 7 15 -6 48 -9 26 -19 52 -21 58 -3 7 -12 8 -24 3z"/>
<path d="M1130 400 c0 -5 5 -10 10 -10 6 0 10 5 10 10 0 6 -4 10 -10 10 -5 0
-10 -4 -10 -10z"/>
<path d="M1315 401 c-12 -12 -6 -111 6 -111 5 0 9 27 9 60 0 64 -1 65 -15 51z"/>
<path d="M1411 358 c-7 -63 -6 -91 4 -95 11 -3 17 25 19 86 1 44 -19 51 -23 9z"/>
<path d="M1765 366 c18 -13 18 -17 7 -36 -12 -19 -11 -25 9 -46 24 -25 48 -22
27 4 -7 8 -13 31 -13 51 0 31 -4 36 -25 39 -24 3 -24 3 -5 -12z"/>
<path d="M1716 314 c13 -56 20 -71 29 -62 10 9 -18 118 -30 118 -10 0 -10 -12
1 -56z"/>
<path d="M1605 348 c-3 -9 1 -30 9 -47 9 -16 16 -37 16 -46 0 -8 9 -15 19 -15
19 0 19 1 2 38 -10 20 -22 48 -28 62 -9 21 -12 22 -18 8z"/>
<path d="M1448 325 c-9 -9 26 -74 40 -75 16 0 16 3 -9 44 -22 38 -23 39 -31
31z"/>
</g>
</svg>
