<?xml version="1.0" standalone="no"?>
<!DOCTYPE svg PUBLIC "-//W3C//DTD SVG 20010904//EN"
 "http://www.w3.org/TR/2001/REC-SVG-20010904/DTD/svg10.dtd">
<svg version="1.0" xmlns="http://www.w3.org/2000/svg"
 width="1121.000000pt" height="233.000000pt" viewBox="0 0 1121.000000 233.000000"
 preserveAspectRatio="xMidYMid meet">

<g transform="translate(0.000000,233.000000) scale(0.100000,-0.100000)"
fill="#000000" stroke="none">
<path d="M1390 2301 c0 -15 -97 -70 -142 -81 -24 -5 -90 -14 -148 -19 -158
-13 -256 -70 -306 -175 -14 -29 -22 -33 -81 -43 -111 -19 -174 -81 -247 -239
-44 -94 -103 -173 -156 -208 l-39 -26 16 -37 c24 -56 21 -200 -6 -283 -11 -36
-21 -85 -21 -110 0 -70 35 -159 87 -220 25 -31 27 -38 24 -119 -2 -81 0 -90
33 -157 23 -46 52 -84 82 -110 151 -128 169 -150 189 -238 l11 -50 57 3 c69 3
109 -9 196 -60 141 -84 189 -102 271 -101 57 0 89 6 134 25 l59 25 56 -25 c44
-20 72 -26 131 -26 81 0 119 15 300 116 69 39 81 42 151 42 l76 0 12 57 c14
67 66 140 135 187 57 39 104 95 139 163 24 48 27 66 27 147 0 91 1 93 35 133
19 23 40 57 46 77 6 20 15 40 20 46 16 17 9 138 -11 203 -25 80 -27 216 -4
270 l15 37 -33 25 c-64 49 -106 105 -162 215 -88 174 -130 215 -249 239 -54
11 -63 17 -82 49 -59 105 -145 154 -294 168 -53 5 -114 11 -136 15 -49 8 -123
44 -149 73 -20 22 -36 27 -36 12z m29 -45 c29 -35 130 -67 243 -77 195 -16
263 -52 323 -169 22 -43 32 -50 70 -50 107 -1 179 -65 256 -227 40 -83 65
-120 115 -172 l64 -65 -11 -59 c-14 -69 -7 -185 15 -246 9 -24 16 -74 16 -111
0 -81 -25 -144 -80 -204 l-38 -41 10 -55 c22 -120 -24 -220 -154 -330 -94 -79
-117 -108 -139 -174 l-18 -51 -67 -8 c-50 -5 -86 -18 -143 -49 -195 -106 -211
-112 -286 -112 -54 0 -84 6 -132 27 l-62 27 -58 -27 c-83 -38 -184 -38 -267 1
-33 15 -71 36 -85 48 -49 38 -154 80 -218 85 l-61 6 -22 60 c-23 62 -76 123
-183 210 -67 54 -108 143 -108 231 0 36 3 75 6 87 5 15 -4 31 -33 63 -47 51
-82 139 -82 204 0 26 9 80 20 121 22 82 26 203 9 264 -10 36 -8 40 18 60 60
47 96 96 150 205 84 171 154 232 266 232 34 0 39 4 61 48 58 112 140 156 319
171 118 10 218 41 248 77 6 8 15 14 19 14 4 0 13 -6 19 -14z"/>
<path d="M1375 2191 c-13 -22 -122 -52 -223 -60 -180 -16 -244 -50 -300 -162
l-27 -54 -66 -6 c-112 -9 -145 -41 -239 -231 -25 -52 -64 -111 -95 -143 l-52
-56 5 -97 c3 -75 -1 -121 -17 -201 -31 -148 -14 -220 69 -295 40 -36 41 -38
29 -73 -32 -97 6 -224 84 -286 85 -66 174 -164 189 -208 14 -43 15 -43 80 -55
67 -13 143 -46 214 -95 56 -38 161 -72 203 -65 18 3 64 17 102 31 l68 26 92
-31 c86 -30 97 -31 144 -21 52 13 90 30 200 94 65 39 147 67 195 67 21 0 28 8
43 50 18 51 84 125 180 203 85 69 123 183 94 279 l-15 46 40 39 c84 81 100
150 69 300 -22 107 -26 194 -12 254 8 34 6 38 -46 90 -40 40 -69 83 -109 164
-86 175 -130 215 -238 215 l-56 0 -29 58 c-16 31 -41 69 -55 84 -38 40 -126
68 -248 79 -101 8 -210 38 -223 60 -4 5 -15 9 -25 9 -10 0 -21 -4 -25 -9z m68
-32 c61 -32 90 -38 215 -49 175 -16 221 -42 282 -165 l25 -50 71 -6 c110 -8
136 -33 220 -202 29 -58 70 -122 100 -156 l52 -57 -5 -89 c-3 -64 0 -112 12
-165 39 -174 30 -228 -55 -315 l-49 -50 16 -59 c29 -114 -5 -193 -126 -291
-74 -60 -134 -132 -152 -183 -9 -27 -16 -31 -61 -37 -29 -4 -84 -25 -131 -50
-205 -108 -209 -110 -267 -109 -36 1 -75 10 -113 28 -71 32 -81 32 -153 -1
-85 -38 -151 -37 -229 3 -33 18 -99 52 -146 77 -48 25 -108 48 -135 52 -47 7
-50 9 -73 58 -25 51 -99 132 -179 195 -81 64 -113 174 -81 281 l12 41 -42 36
c-85 73 -104 148 -71 285 17 73 21 117 18 194 l-3 100 48 50 c31 31 66 85 95
145 60 123 107 189 148 206 19 8 60 14 92 14 l59 0 24 52 c55 118 113 153 281
168 125 11 156 18 213 48 49 26 38 26 88 1z"/>
<path d="M1330 1980 c6 -48 15 -69 25 -59 10 10 -8 109 -20 109 -8 0 -10 -15
-5 -50z"/>
<path d="M1426 1991 c-6 -39 0 -71 13 -71 3 0 7 25 8 55 3 63 -11 74 -21 16z"/>
<path d="M1216 2012 c6 -4 23 -27 38 -50 35 -56 48 -45 16 13 -17 31 -31 45
-45 45 -12 0 -16 -3 -9 -8z"/>
<path d="M1587 1996 c-3 -7 -9 -34 -12 -60 -9 -56 10 -64 20 -8 3 20 9 47 12
60 6 24 -11 31 -20 8z"/>
<path d="M1662 1963 c-19 -48 -25 -83 -13 -83 5 0 15 18 21 41 6 22 14 47 17
55 3 8 1 14 -5 14 -5 0 -14 -12 -20 -27z"/>
<path d="M1030 1941 c0 -14 37 -37 73 -45 21 -5 28 -3 25 6 -3 7 -19 15 -36
19 -18 4 -39 12 -47 19 -10 8 -15 9 -15 1z"/>
<path d="M1785 1918 c-11 -35 -10 -98 2 -102 10 -4 13 10 13 54 0 57 -6 75
-15 48z"/>
<path d="M930 1881 c0 -15 81 -70 96 -64 8 3 -5 17 -37 39 -55 37 -59 38 -59
25z"/>
<path d="M1910 1853 c0 -11 -6 -39 -14 -61 -12 -33 -12 -40 -1 -36 20 8 41 92
26 107 -8 8 -11 6 -11 -10z"/>
<path d="M815 1810 c-6 -10 52 -87 68 -89 15 -2 6 19 -27 58 -20 24 -37 37
-41 31z"/>
<path d="M1990 1804 c0 -6 -16 -29 -35 -51 -24 -28 -32 -44 -24 -49 11 -7 29
10 66 64 12 17 13 26 4 35 -6 6 -11 7 -11 1z"/>
<path d="M720 1721 c0 -14 88 -82 94 -73 3 5 -15 25 -39 45 -45 38 -55 43 -55
28z"/>
<path d="M1063 1719 c-18 -5 -37 -18 -43 -29 -9 -18 -8 -20 17 -20 29 1 48 12
72 43 16 20 7 21 -46 6z"/>
<path d="M2051 1679 c-22 -53 -23 -63 -6 -51 18 13 46 85 37 94 -5 5 -18 -12
-31 -43z"/>
<path d="M1712 1698 c-7 -7 -12 -18 -12 -24 0 -7 -8 -15 -17 -17 -10 -3 -1 -5
19 -6 41 -1 52 9 43 39 -7 23 -16 25 -33 8z"/>
<path d="M913 1670 c-6 -20 -8 -49 -6 -66 4 -25 9 -30 36 -32 41 -3 94 18 75
29 -7 5 -25 9 -40 9 -22 0 -29 6 -34 28 -3 15 -9 36 -13 47 -7 17 -10 15 -18
-15z"/>
<path d="M1820 1672 c0 -7 -12 -31 -26 -53 l-25 -40 23 3 c41 6 61 52 38 88
-7 10 -10 11 -10 2z"/>
<path d="M1373 1615 c0 -33 2 -45 4 -27 2 18 2 45 0 60 -2 15 -4 0 -4 -33z"/>
<path d="M2110 1620 c-14 -15 -34 -31 -45 -38 -13 -7 -17 -14 -10 -21 7 -6 25
3 55 29 28 24 41 42 35 47 -6 5 -20 -1 -35 -17z"/>
<path d="M690 1610 c-33 -14 -41 -20 -28 -25 9 -3 30 1 47 10 18 9 36 13 41
10 6 -3 10 -2 10 3 0 19 -26 19 -70 2z"/>
<path d="M1140 1592 c0 -17 30 -75 36 -69 3 3 -4 22 -15 44 -11 21 -20 32 -21
25z"/>
<path d="M1332 1570 c0 -19 2 -27 5 -17 2 9 2 25 0 35 -3 9 -5 1 -5 -18z"/>
<path d="M1591 1554 c-12 -26 -20 -52 -18 -57 2 -6 13 14 25 43 28 67 21 79
-7 14z"/>
<path d="M827 1566 c-10 -26 -8 -58 6 -82 16 -28 60 -26 89 4 l22 22 -37 0
c-32 0 -39 4 -55 36 -15 30 -20 33 -25 20z"/>
<path d="M1402 1550 c0 -19 2 -27 5 -17 2 9 2 25 0 35 -3 9 -5 1 -5 -18z"/>
<path d="M1878 1556 c-19 -13 -41 -26 -49 -29 -8 -3 -1 -8 18 -12 18 -4 34
-15 36 -24 3 -10 5 -8 6 7 0 12 7 25 14 28 11 4 23 54 13 54 -2 0 -19 -11 -38
-24z"/>
<path d="M595 1530 c-3 -5 3 -10 13 -10 11 0 26 -9 33 -21 11 -16 20 -19 42
-14 36 9 35 26 -2 19 -23 -5 -30 -2 -36 15 -7 22 -39 29 -50 11z"/>
<path d="M1990 1498 c0 -9 -11 -19 -25 -22 -13 -3 -29 -15 -35 -26 -6 -11 -18
-20 -28 -20 -14 -1 -14 -2 3 -12 11 -6 23 -16 27 -22 6 -8 8 -8 8 0 0 6 11 16
24 22 17 8 27 22 32 47 3 20 4 39 0 42 -3 4 -6 -1 -6 -9z"/>
<path d="M2151 1469 c-18 -22 -31 -43 -28 -46 9 -8 23 4 57 47 42 53 16 52
-29 -1z"/>
<path d="M570 1473 c0 -5 21 -17 47 -28 26 -11 51 -21 55 -23 4 -2 8 0 8 5 0
5 -17 19 -39 31 -39 22 -71 29 -71 15z"/>
<path d="M750 1427 c0 -50 33 -96 65 -89 20 4 78 62 71 70 -2 2 -18 -4 -34
-12 -28 -15 -62 -13 -62 3 0 3 -9 17 -20 31 l-20 25 0 -28z"/>
<path d="M970 1391 c0 -9 99 -55 106 -49 2 2 -21 16 -51 31 -30 15 -55 23 -55
18z"/>
<path d="M1735 1374 c-62 -41 -65 -50 -8 -18 29 16 53 32 53 37 0 10 -1 10
-45 -19z"/>
<path d="M2203 1382 c-55 -15 -75 -39 -25 -29 44 9 82 26 82 37 0 5 -1 9 -2 9
-2 -1 -27 -8 -55 -17z"/>
<path d="M1953 1346 c-32 -12 -32 -12 -13 -29 27 -23 74 -13 89 19 10 22 9 24
-17 23 -15 -1 -42 -7 -59 -13z"/>
<path d="M526 1332 c-3 -5 19 -16 48 -25 61 -20 66 -20 66 -7 0 5 -23 16 -52
25 -61 18 -56 17 -62 7z"/>
<path d="M1329 1330 c-75 -22 -122 -84 -122 -163 -1 -63 20 -106 70 -144 31
-24 46 -28 98 -28 52 0 67 4 98 28 106 80 94 228 -24 295 -41 23 -74 26 -120
12z m61 -49 c0 -5 9 -7 20 -4 31 8 24 -16 -9 -30 -21 -9 -27 -17 -22 -26 6
-10 10 -9 15 4 4 13 13 15 31 11 20 -5 27 -2 34 15 5 16 10 19 15 10 4 -6 5
-18 2 -26 -3 -9 1 -15 9 -15 14 0 17 -4 19 -32 1 -7 -10 -15 -24 -19 l-25 -7
28 -1 c32 -1 39 -31 6 -31 -15 0 -19 -4 -14 -19 3 -11 1 -22 -5 -26 -9 -6 -14
7 -11 28 2 10 -17 9 -24 -3 -3 -5 0 -18 7 -29 18 -30 2 -38 -30 -14 -23 17
-29 18 -40 6 -15 -16 -79 -9 -100 11 -17 16 -29 116 -13 116 6 0 11 -8 11 -17
0 -15 4 -13 19 7 11 13 17 28 14 33 -7 11 53 67 72 67 8 0 15 -4 15 -9z m-100
-61 c0 -5 -4 -10 -10 -10 -5 0 -10 5 -10 10 0 6 5 10 10 10 6 0 10 -4 10 -10z
m110 -171 c0 -5 -7 -9 -15 -9 -15 0 -20 12 -9 23 8 8 24 -1 24 -14z"/>
<path d="M1396 1188 c-11 -43 -6 -53 13 -23 18 29 18 45 2 45 -5 0 -11 -10
-15 -22z"/>
<path d="M1315 1150 c-3 -5 -1 -10 4 -10 6 0 11 -5 11 -11 0 -6 -7 -9 -15 -6
-8 4 -17 2 -20 -3 -7 -11 15 -13 38 -4 9 3 13 13 10 25 -6 21 -18 25 -28 9z"/>
<path d="M2253 1319 c-6 -6 -27 -11 -47 -12 -38 -2 -47 -11 -20 -21 28 -11 51
-6 69 14 19 21 17 38 -2 19z"/>
<path d="M710 1272 c-1 -78 87 -105 119 -35 16 34 14 35 -19 18 -36 -19 -48
-17 -77 15 l-22 25 -1 -23z"/>
<path d="M1993 1237 c-3 -5 -18 -7 -34 -5 l-29 5 22 -24 c27 -29 65 -27 91 4
9 11 17 23 17 25 0 9 -61 4 -67 -5z"/>
<path d="M2228 1233 c-69 -6 -59 -23 12 -23 47 0 60 3 60 15 0 8 -6 14 -12 13
-7 -1 -34 -3 -60 -5z"/>
<path d="M1678 1223 c7 -3 16 -2 19 1 4 3 -2 6 -13 5 -11 0 -14 -3 -6 -6z"/>
<path d="M548 1183 c-27 -8 -48 -18 -48 -24 0 -12 5 -12 66 8 29 9 51 20 48
25 -6 10 -7 10 -66 -9z"/>
<path d="M1008 1183 c7 -3 16 -2 19 1 4 3 -2 6 -13 5 -11 0 -14 -3 -6 -6z"/>
<path d="M1755 1160 c39 -4 74 -4 80 1 5 5 -24 8 -70 8 l-80 -2 70 -7z"/>
<path d="M928 1153 c18 -2 45 -2 60 0 15 2 0 4 -33 4 -33 0 -45 -2 -27 -4z"/>
<path d="M1931 1149 c-1 -9 8 -28 20 -43 26 -33 68 -34 97 -3 l22 23 -61 -2
c-54 -2 -61 0 -69 19 -6 15 -9 17 -9 6z"/>
<path d="M2265 1135 c-16 -8 -42 -14 -57 -15 -18 0 -28 -5 -28 -15 0 -9 9 -15
24 -15 27 0 96 37 96 51 0 5 -1 9 -2 8 -2 0 -16 -7 -33 -14z"/>
<path d="M797 1120 c-31 -24 -40 -25 -73 -4 -13 9 -28 14 -31 10 -8 -8 26 -54
54 -73 19 -12 23 -11 46 9 14 13 28 35 31 51 8 32 6 33 -27 7z"/>
<path d="M993 1113 c9 -2 23 -2 30 0 6 3 -1 5 -18 5 -16 0 -22 -2 -12 -5z"/>
<path d="M555 1081 c-74 -7 -58 -23 20 -20 38 2 55 7 55 16 0 7 -3 12 -7 11
-5 -1 -35 -4 -68 -7z"/>
<path d="M1930 1012 c0 -18 26 -42 45 -42 13 0 25 -3 27 -7 2 -5 17 5 33 20
17 16 22 25 13 21 -10 -3 -26 -3 -35 1 -18 7 -83 13 -83 7z"/>
<path d="M608 1002 c-17 -7 -77 -80 -78 -94 0 -5 7 -8 15 -8 8 0 15 4 15 9 0
5 16 30 35 55 19 25 34 46 32 45 -1 0 -10 -3 -19 -7z"/>
<path d="M817 969 c-27 -31 -39 -33 -92 -13 -15 6 -16 4 -6 -14 13 -24 32 -36
72 -45 22 -6 29 -2 44 26 9 18 15 43 14 55 -4 22 -5 22 -32 -9z"/>
<path d="M1025 965 c-22 -14 -44 -27 -50 -29 -5 -2 -7 -7 -3 -11 6 -6 98 52
98 62 0 5 -3 4 -45 -22z"/>
<path d="M1714 959 c32 -17 60 -28 63 -25 6 5 -99 56 -114 56 -4 -1 18 -15 51
-31z"/>
<path d="M2203 958 c-43 -9 -59 -28 -25 -28 33 0 93 21 87 31 -7 10 -5 10 -62
-3z"/>
<path d="M1890 925 c0 -18 25 -65 35 -65 8 0 16 -10 18 -22 l4 -23 2 23 c1 16
7 22 25 22 14 0 28 5 32 12 4 6 3 8 -4 4 -6 -3 -18 2 -28 11 -14 15 -84 46
-84 38z"/>
<path d="M2135 870 c-3 -5 14 -18 38 -29 58 -26 62 -27 65 -17 4 12 -96 57
-103 46z"/>
<path d="M873 838 c-9 -32 -11 -33 -59 -30 l-49 2 30 -25 c62 -52 124 -23 110
51 -8 43 -19 43 -32 2z"/>
<path d="M1863 863 c9 -2 23 -2 30 0 6 3 -1 5 -18 5 -16 0 -22 -2 -12 -5z"/>
<path d="M1550 838 c0 -11 39 -98 45 -98 12 0 3 27 -20 65 -13 22 -25 37 -25
33z"/>
<path d="M1832 802 c3 -38 28 -58 68 -53 14 2 26 4 28 6 7 6 -46 55 -60 55 -8
0 -20 6 -26 12 -10 10 -12 6 -10 -20z"/>
<path d="M1162 793 c-5 -15 -13 -36 -17 -45 -4 -10 -3 -18 2 -18 11 0 37 79
30 86 -3 3 -9 -8 -15 -23z"/>
<path d="M1332 795 c0 -16 2 -22 5 -12 2 9 2 23 0 30 -3 6 -5 -1 -5 -18z"/>
<path d="M638 783 c-27 -13 -48 -28 -48 -33 0 -14 3 -13 55 12 25 12 45 28 45
35 0 7 -1 12 -2 12 -2 -1 -24 -12 -50 -26z"/>
<path d="M2105 800 c-6 -9 30 -31 80 -50 18 -7 25 -6 25 3 -1 15 -98 59 -105
47z"/>
<path d="M1402 775 c0 -16 2 -22 5 -12 2 9 2 23 0 30 -3 6 -5 -1 -5 -18z"/>
<path d="M977 766 c-4 -10 -7 -28 -7 -41 0 -26 -16 -35 -68 -36 l-37 -1 41
-19 c34 -15 47 -17 73 -8 35 12 40 40 17 94 -10 25 -13 27 -19 11z"/>
<path d="M1363 730 c0 -30 2 -43 4 -27 2 15 2 39 0 55 -2 15 -4 2 -4 -28z"/>
<path d="M1750 738 c0 -15 -4 -30 -10 -33 -15 -9 30 -51 63 -59 15 -3 27 -4
27 -1 0 14 -31 65 -40 65 -5 0 -16 12 -24 28 l-15 27 -1 -27z"/>
<path d="M1082 663 c3 -34 0 -39 -36 -59 l-40 -22 37 -7 c68 -13 108 43 71
100 -23 36 -35 31 -32 -12z"/>
<path d="M1640 663 c-10 -36 -8 -40 20 -65 21 -19 40 -28 63 -27 30 1 30 2 7
8 -16 4 -26 15 -28 30 -2 12 -14 38 -27 57 l-24 35 -11 -38z"/>
<path d="M1871 684 c0 -11 3 -14 6 -6 3 7 2 16 -1 19 -3 4 -6 -2 -5 -13z"/>
<path d="M1762 610 c0 -14 2 -19 5 -12 2 6 2 18 0 25 -3 6 -5 1 -5 -13z"/>
<path d="M757 596 c-4 -9 -16 -16 -28 -16 -21 0 -21 -1 -4 -20 9 -10 15 -26
12 -35 -7 -18 4 -20 21 -3 8 8 15 8 27 -2 13 -11 15 -9 15 12 0 13 5 29 12 36
9 9 7 12 -10 12 -11 0 -25 7 -30 16 -8 15 -10 15 -15 0z"/>
<path d="M2027 596 c-4 -9 -16 -16 -28 -16 -21 0 -21 -1 -5 -19 10 -11 14 -25
10 -36 -6 -15 -4 -16 15 -5 18 9 26 9 39 -2 14 -11 15 -11 9 6 -5 12 -1 26 9
37 16 18 16 19 -4 19 -12 0 -25 7 -30 16 -8 15 -10 15 -15 0z"/>
<path d="M1346 518 c2 -3 -2 -9 -8 -12 -7 -3 -2 -3 12 0 35 9 44 19 15 19 -12
0 -21 -3 -19 -7z"/>
<path d="M976 410 c-15 -27 -23 -50 -17 -50 12 0 61 73 61 90 0 24 -19 7 -44
-40z"/>
<path d="M1780 432 c0 -14 88 -73 94 -63 4 5 -13 23 -36 40 -43 32 -58 38 -58
23z"/>
<path d="M1669 406 c-11 -11 25 -116 39 -116 15 0 11 19 -17 83 -9 21 -19 36
-22 33z"/>
<path d="M915 390 c-3 -5 -1 -10 4 -10 6 0 11 5 11 10 0 6 -2 10 -4 10 -3 0
-8 -4 -11 -10z"/>
<path d="M1097 393 c-2 -5 -2 -24 -1 -43 1 -19 3 -43 3 -52 1 -10 6 -18 11
-18 6 0 10 27 10 60 0 52 -11 77 -23 53z"/>
<path d="M1205 353 c-3 -16 -10 -43 -14 -60 -12 -42 13 -47 27 -5 l9 27 23
-37 c19 -34 40 -50 40 -32 0 17 -43 74 -56 74 -10 0 -12 8 -7 30 3 19 1 30 -6
30 -6 0 -13 -12 -16 -27z"/>
<path d="M1565 331 c1 -42 18 -71 44 -71 13 1 13 3 -4 16 -13 10 -20 27 -20
51 0 20 -4 38 -10 40 -6 1 -10 -14 -10 -36z"/>
<path d="M1505 318 c9 -61 15 -78 26 -78 6 0 8 13 5 30 -3 17 -9 44 -12 60 -9
48 -27 36 -19 -12z"/>
<path d="M1395 341 c-7 -13 30 -101 43 -101 6 0 1 24 -10 53 -23 60 -24 62
-33 48z"/>
<path d="M4960 1725 l0 -215 -45 34 c-191 146 -503 91 -621 -110 -69 -118 -79
-310 -23 -458 13 -36 40 -78 76 -116 155 -168 417 -183 591 -35 l42 37 0 -61
0 -61 125 0 125 0 0 600 0 600 -135 0 -135 0 0 -215z m-132 -290 c76 -32 116
-94 131 -200 28 -194 -64 -335 -219 -335 -90 0 -154 35 -197 107 -23 40 -27
59 -31 153 -4 99 -2 112 21 162 25 57 68 97 122 116 45 16 131 14 173 -3z"/>
<path d="M9030 1840 l0 -100 135 0 135 0 0 100 0 100 -135 0 -135 0 0 -100z"/>
<path d="M3113 1840 l-123 -59 0 -85 0 -86 -65 0 -65 0 0 -90 0 -90 64 0 65 0
3 -282 c3 -267 4 -285 24 -323 50 -93 222 -129 401 -83 l45 11 -7 61 c-13 115
-13 115 -48 105 -50 -14 -103 -11 -127 9 -22 18 -23 22 -24 258 l-1 239 93 3
92 3 0 89 0 90 -95 0 -95 0 0 145 c0 80 -3 145 -7 144 -5 0 -63 -27 -130 -59z"/>
<path d="M3773 1840 l-123 -59 0 -85 0 -86 -65 0 -65 0 0 -90 0 -90 64 0 65 0
3 -282 c3 -267 4 -285 24 -323 50 -93 222 -129 401 -83 l45 11 -7 61 c-13 115
-13 115 -48 105 -50 -14 -103 -11 -127 9 -22 18 -23 22 -24 258 l-1 239 93 3
92 3 0 89 0 90 -95 0 -95 0 0 145 c0 80 -3 145 -7 144 -5 0 -63 -27 -130 -59z"/>
<path d="M7720 1620 c-60 -13 -137 -52 -188 -95 l-42 -37 0 61 0 61 -125 0
-125 0 0 -435 0 -435 134 0 134 0 4 278 c4 292 8 322 56 376 45 50 170 73 231
41 58 -29 63 -58 69 -392 l5 -303 128 0 129 0 0 233 c0 259 10 345 45 398 49
75 176 103 246 56 54 -36 58 -60 58 -389 l1 -298 135 0 135 0 0 315 c0 189 -4
334 -11 365 -22 104 -112 179 -243 201 -123 20 -232 -6 -330 -80 l-62 -48 -52
48 c-29 27 -72 54 -99 63 -60 21 -173 28 -233 16z"/>
<path d="M6052 1273 l3 -338 28 -57 c50 -102 149 -152 302 -152 130 -1 225 34
308 113 l37 35 0 -67 0 -67 125 0 125 0 0 435 0 435 -135 0 -135 0 0 -249 c0
-349 -8 -381 -111 -434 -47 -25 -63 -28 -121 -25 -77 4 -113 24 -140 79 -16
30 -18 68 -18 332 l0 297 -136 0 -135 0 3 -337z"/>
<path d="M9028 1130 c-3 -478 -3 -480 -25 -501 -16 -17 -38 -24 -89 -28 l-68
-6 -22 -88 c-12 -48 -19 -89 -15 -91 4 -3 46 -10 94 -17 143 -20 264 9 331 80
55 58 58 89 63 634 l5 497 -136 0 -135 0 -3 -480z"/>
<path d="M5500 855 l0 -115 135 0 135 0 0 115 0 115 -135 0 -135 0 0 -115z"/>
</g>
</svg>
